PathFileType	4	(X/Y/Z)	C:/Users/beibeiliu/ov580/test_trc\sequence.18_training_dense_right.trc
DataRate	CameraRate	NumFrames	NumMarkers	Units	OrigDataRate	OrigDataStartFrame	OrigNumFrames
120	120	8	19	mm	120	169	336
Frame#	Time	ThumbCMC			ThumbMCP			ThumbIP			ThumbTip			IndexMCP			IndexPIP			IndexTip			MiddleMCP			MiddlePIP			MiddleTip			RingMCP			RingPIP			RingTip			PinkyMCP			PinkyPIP			PinkyTip			BackHand1			BackHand2			BackHand3	
		X0	Y0	Z0	X1	Y1	Z1	X2	Y2	Z2	X3	Y3	Z3	X4	Y4	Z4	X5	Y5	Z5	X6	Y6	Z6	X7	Y7	Z7	X8	Y8	Z8	X9	Y9	Z9	X10	Y10	Z10	X11	Y11	Z11	X12	Y12	Z12	X13	Y13	Z13	X14	Y14	Z14	X15	Y15	Z15	X16	Y16	Z16	X17	Y17	Z17	X18	Y18	Z18	
168	1.4	227.61	11.2709	32.9875	223.798	-17.1858	44.6365	215.012	-35.9751	48.6394	208.224	-53.9579	53.015	236.593	-44.4386	-0.863493	234.047	-66.4238	20.4584	230.725	-49.0876	42.2969	256.027	-51.9245	4.09993	249.6	-71.5258	26.5247	246.906	-47.4453	49.2233	276.485	-51.558	17.0001	262.731	-61.9214	42.4962	253.822	-37.0743	52.4919	291.204	-46.0953	27.4531	274.376	-54.6941	41.2082	260.789	-37.6312	53.1676	280.798	-0.180469	10.38	279.643	22.0462	17.379	256.605	15.0516	8.74908	
169	1.40833	232.485	12.9279	32.3818	220.035	-12.7314	45.3668	211.165	-30.8886	49.7556	199.351	-50.1287	56.4266	236.779	-49.6922	2.92458	227.625	-63.811	21.4079	225.81	-45.446	43.8882	252.39	-53.5594	6.51498	241.648	-69.3312	33.0464	241.849	-42.6754	51.0647	270.242	-53.4637	19.602	256.243	-61.5123	44.154	251.393	-35.119	53.875	285.999	-50.4334	31.5975	272.333	-56.3007	46.7187	256.489	-31.3732	52.3349	283.873	-6.0552	10.9462	282.083	22.358	22.1343	259.402	13.5119	10.4646	
170	1.41667	236.984	11.385	32.0285	218.819	-8.21811	46.9183	205.8	-29.128	50.5037	201.461	-44.22	56.5469	233.72	-43.7088	3.88628	224.397	-60.3844	23.9536	227.135	-35.7505	47.4802	251.14	-54.9408	10.3693	236.373	-65.1526	36.6111	241.844	-37.4607	51.6658	263.966	-54.5039	21.1892	252.895	-61.7651	43.2721	251.622	-33.7869	57.0211	280.593	-51.1789	33.0829	262.925	-52.1323	51.1419	258.647	-25.501	55.6335	284.24	-10.5449	14.1169	287.69	17.2297	21.805	264.637	12.601	12.1403	
171	1.425	236.768	14.652	33.7541	223.185	-4.36772	47.0538	208.624	-24.8734	50.9889	197.954	-39.8469	57.4443	229.112	-42.3026	5.27387	219.767	-56.099	28.3746	224.263	-33.1643	48.6643	244.092	-55.7437	12.6674	234.972	-62.9504	39.6308	240.032	-34.3197	54.531	263.177	-55.0115	24.342	246.001	-56.0534	47.8809	251.398	-29.0938	58.8187	274.794	-54.6289	35.4823	260.583	-52.674	52.9128	257.018	-22.4561	54.9647	283	-10.3308	14.6504	291.444	11.5494	23.131	263.828	14.1111	10.7786	
172	1.43333	241.923	15.8106	35.13	222.949	-1.47926	48.4606	203.63	-17.5578	53.1242	193.555	-35.4601	57.4299	225.732	-36.2982	5.0852	212.329	-49.8545	28.7048	220.62	-29.3398	51.0673	237.705	-50.9569	12.0851	225.15	-57.6782	39.5143	236.756	-34.2926	54.8731	254.974	-55.7254	25.366	243.772	-57.3974	47.9367	245.07	-29.4346	57.3647	275.686	-53.9931	36.6395	256.779	-50.539	56.39	254.515	-23.6125	53.3997	282.895	-13.9153	15.0552	292.198	9.23558	23.8205	269.715	11.5252	12.628	
173	1.44167	246.654	18.2317	35.9125	225.446	1.56192	48.4144	203.488	-10.9291	52.2488	189.099	-27.3816	57.8891	221.333	-34.9653	4.79016	210.265	-48.3194	25.8108	218.708	-31.1238	50.3787	236.49	-50.7842	11.7785	220.119	-57.432	36.2951	231.468	-31.9395	54.3775	251.553	-54.348	23.6443	235.903	-54.8642	45.6622	242.696	-29.2189	58.686	270.256	-55.6962	35.6628	250.269	-54.0343	51.2432	247.467	-26.335	56.1641	282.478	-14.3949	17.3509	296.951	6.82284	24.2107	267.243	12.2378	11.9352	
174	1.45	248.85	21.6816	36.7562	223.994	3.53639	47.8095	207.374	-4.73531	52.7761	187.984	-18.2346	58.3625	220.698	-31.5636	3.55684	205.623	-43.3839	22.6507	213.449	-27.8513	49.7628	235.023	-47.6147	10.2769	217.571	-56.909	31.4225	223.061	-31.8396	54.0982	248.092	-54.2139	21.4162	230.777	-55.0585	47.0713	238.126	-33.5583	61.8577	263.363	-56.6824	33.921	246.154	-55.4592	50.6017	244.098	-28.4986	56.5217	282.51	-17.1902	14.448	299.475	1.3629	26.2985	271.738	10.7194	14.2063	
175	1.45833	251.629	21.1956	36.6336	225.341	7.37066	47.5752	204.892	-0.861839	50.9456	192.857	-14.2737	55.6026	223.43	-27.4449	2.7628	204.275	-41.2418	19.2411	207.567	-24.5473	46.6022	230.832	-43.1995	8.34411	211.055	-52.3964	33.008	222.654	-35.9006	54.5171	243.58	-54.6421	21.0646	226.051	-54.9645	42.5403	230.454	-37.8688	58.8562	257.533	-59.4142	34.3191	240.196	-54.2727	48.9697	238.997	-33.6688	62.3806	285.642	-20.2833	17.1778	298.459	-0.0591426	28.0128	274.842	7.26768	12.4495	
